<svg width="179" height="34" viewBox="0 0 179 34" fill="none" xmlns="http://www.w3.org/2000/svg">
<g clip-path="url(#clip0_26016_424)">
<path d="M14.6603 16.278C14.6603 13.2883 12.4116 11.187 9.6494 11.187C6.88718 11.187 4.63848 13.3237 4.63848 16.278C4.63848 19.197 6.88718 21.3692 9.6494 21.3692C12.4144 21.3664 14.6603 19.2678 14.6603 16.278ZM14.6998 25.1766V22.8626C13.337 24.4652 11.3084 25.46 8.87914 25.46C3.83154 25.46 0 21.5435 0 16.278C0 11.0453 3.97826 7.06074 8.99199 7.06074C11.3508 7.06074 13.3399 8.05824 14.7026 9.62263V7.37961H19.2339V25.1766H14.6998Z" fill="#BDBDBD"/>
<path d="M41.2439 21.2247C39.6582 21.2247 39.218 20.655 39.218 19.1615V11.2605H42.1298V7.3796H39.218V3.03803H34.574V7.3796H28.5924V6.29761C28.5924 4.80137 29.1822 4.23175 30.8045 4.23175H31.8231V0.778661H29.5884C25.7569 0.778661 23.9512 1.98874 23.9512 5.68985V7.37687H21.3724V11.2579H23.9512V25.1738H28.5953V11.2579H34.5768V19.9791C34.5768 23.6094 36.0129 25.1766 39.7711 25.1766H42.1665V21.2247H41.2439Z" fill="#BDBDBD"/>
<path d="M57.8992 14.6755C57.569 12.3615 55.6138 10.9743 53.3312 10.9743C51.0458 10.9743 49.1668 12.3261 48.6899 14.6755H57.8992ZM48.6504 17.4527C48.9834 20.0854 50.9358 21.5817 53.4046 21.5817C55.357 21.5817 56.8694 20.6904 57.7524 19.2677H62.5066C61.4006 23.0397 57.8992 25.4599 53.2946 25.4599C47.7306 25.4599 43.8257 21.6879 43.8257 16.3134C43.8257 10.9389 47.9536 7.05794 53.4074 7.05794C58.898 7.05794 62.8762 10.9744 62.8762 16.3134C62.8762 16.7059 62.8395 17.0956 62.7661 17.4527H48.6504Z" fill="#BDBDBD"/>
<path d="M92.4028 16.278C92.4028 13.3945 90.1541 11.187 87.3918 11.187C84.6297 11.187 82.3809 13.3237 82.3809 16.278C82.3809 19.197 84.6297 21.3692 87.3918 21.3692C90.1541 21.3664 92.4028 19.1616 92.4028 16.278ZM77.8102 7.37961H82.3414V9.69348C83.7041 8.0555 85.73 7.06074 88.162 7.06074C93.1363 7.06074 97.0413 11.0126 97.0413 16.2426C97.0413 21.4754 93.0629 25.4626 88.0521 25.4626C85.73 25.4626 83.8142 24.5715 82.4882 23.078V32.4997H77.8102V7.37961Z" fill="#BDBDBD"/>
<path d="M113.375 16.278C113.375 13.2883 111.129 11.187 108.363 11.187C105.601 11.187 103.353 13.3237 103.353 16.278C103.353 19.197 105.601 21.3692 108.363 21.3692C111.129 21.3664 113.375 19.2678 113.375 16.278ZM113.414 25.1766V22.8626C112.052 24.4652 110.022 25.46 107.593 25.46C102.546 25.46 98.7143 21.5435 98.7143 16.278C98.7143 11.0453 102.693 7.06074 107.704 7.06074C110.062 7.06074 112.052 8.05824 113.414 9.62263V7.37961H117.946V25.1766H113.414Z" fill="#BDBDBD"/>
<path d="M69.6419 9.12387C69.6419 9.12387 70.796 7.06074 73.6202 7.06074C74.8278 7.06074 75.6094 7.46136 75.6094 7.46136V12.0019C75.6094 12.0019 73.9052 10.9853 72.3393 11.1897C70.7734 11.3941 69.783 12.7841 69.7887 14.6428V25.1792H65.1107V7.38233H69.6419V9.12387Z" fill="#BDBDBD"/>
<path d="M139.109 7.37957L127.668 32.4424H122.843L127.335 22.7536L119.74 7.37957H125.208L129.652 17.6516L134.211 7.37957H139.109Z" fill="#BDBDBD"/>
<path d="M175.63 6.97623L164.288 0.653283C160.959 -1.20271 156.797 1.11661 156.797 4.83133V5.47998C156.797 6.06594 157.121 6.6083 157.646 6.89991L159.788 8.09364C160.417 8.44523 161.201 8.00644 161.201 7.30601V5.69256C161.201 4.88584 162.105 4.38165 162.827 4.78501L172.651 10.2631C173.374 10.6664 173.374 11.6748 172.651 12.0755L162.827 17.5536C162.105 17.9569 161.201 17.4527 161.201 16.646V15.7874C161.201 12.0727 157.04 9.7507 153.708 11.6094L142.366 17.9324C139.036 19.7884 139.036 24.4325 142.366 26.2884L153.708 32.6114C157.037 34.4674 161.201 32.1481 161.201 28.4334V27.7847C161.201 27.1987 160.877 26.6591 160.352 26.3647L158.21 25.1683C157.582 24.8168 156.797 25.2555 156.797 25.956V27.5695C156.797 28.3762 155.895 28.8803 155.172 28.4769L145.348 22.9989C144.626 22.5955 144.626 21.5872 145.348 21.1838L155.172 15.7057C155.895 15.3023 156.797 15.8065 156.797 16.6132V17.4718C156.797 21.1865 160.959 23.5086 164.288 21.6498L175.63 15.3269C178.96 13.4763 178.96 8.83223 175.63 6.97623Z" fill="#BDBDBD"/>
</g>
<defs>
<clipPath id="clip0_26016_424">
<rect width="178.128" height="33.2647" rx="9.17647" fill="white"/>
</clipPath>
</defs>
</svg>
