<svg width="193" height="39" viewBox="0 0 193 39" fill="none" xmlns="http://www.w3.org/2000/svg">
<path d="M7.81409 26.8806C7.46692 25.8671 7.29468 24.5881 7.29468 22.8682C7.29468 21.1476 7.46692 19.8659 7.81409 18.8551C8.78402 15.9549 11.3534 14.3703 14.7177 14.3703C17.2162 14.3703 19.1945 15.3485 20.5142 16.9C20.6163 17.034 20.6508 17.2361 20.4792 17.3706L18.2941 19.2256C18.1198 19.3615 17.9469 19.3277 17.8072 19.1593C16.9736 18.2494 16.1065 17.7424 14.7184 17.7424C13.227 17.7424 12.0829 18.4509 11.5958 19.8672C11.3203 20.6784 11.2493 21.6215 11.2493 22.8689C11.2493 24.1162 11.3196 25.0937 11.5958 25.9036C12.0822 27.2848 13.227 27.9933 14.7184 27.9933C16.1065 27.9933 16.9736 27.487 17.8072 26.5789C17.9469 26.408 18.1198 26.408 18.2941 26.5432L20.4792 28.3982C20.6508 28.5328 20.6163 28.7017 20.5142 28.8708C19.1952 30.3891 17.2168 31.3661 14.7177 31.3661C11.3534 31.3647 8.78402 29.7788 7.81409 26.8806Z" fill="#BDBDBD"/>
<path d="M83.6271 26.8806C83.28 25.8671 83.1077 24.5881 83.1077 22.8682C83.1077 21.1476 83.28 19.8659 83.6271 18.8551C84.599 15.9549 87.1658 14.3703 90.5301 14.3703C93.0292 14.3703 95.0083 15.3485 96.3259 16.9C96.4293 17.034 96.4651 17.2361 96.2902 17.3706L94.1045 19.2256C93.9308 19.3615 93.7586 19.3277 93.6195 19.1593C92.7874 18.2494 91.9194 17.7424 90.5301 17.7424C89.0394 17.7424 87.8939 18.4509 87.4089 19.8672C87.1306 20.6784 87.0631 21.6215 87.0631 22.8689C87.0631 24.1162 87.1306 25.0937 87.4089 25.9036C87.8939 27.2848 89.0394 27.9933 90.5301 27.9933C91.9194 27.9933 92.7874 27.487 93.6195 26.5789C93.7586 26.408 93.9315 26.408 94.1045 26.5432L96.2902 28.3982C96.4651 28.5328 96.4293 28.7017 96.3259 28.8708C95.0083 30.3891 93.0292 31.3661 90.5301 31.3661C87.1658 31.3647 84.599 29.7788 83.6271 26.8806Z" fill="#BDBDBD"/>
<path d="M171.248 30.9949C171.039 30.9949 170.902 30.861 170.902 30.657V21.2835C170.902 19.1925 169.825 17.7418 167.742 17.7418C165.73 17.7418 164.551 19.1919 164.551 21.2835V30.657C164.551 30.8603 164.41 30.9949 164.204 30.9949H161.011C160.802 30.9949 160.663 30.861 160.663 30.657V21.2835C160.663 19.1925 159.588 17.7418 157.508 17.7418C155.496 17.7418 154.315 19.1919 154.315 21.2835V30.657C154.315 30.8603 154.176 30.9949 153.967 30.9949H150.775C150.565 30.9949 150.429 30.861 150.429 30.657V15.0781C150.429 14.8753 150.565 14.7401 150.775 14.7401H153.967C154.176 14.7401 154.315 14.8753 154.315 15.0781V16.2584H154.349C155.079 15.2465 156.535 14.3703 158.755 14.3703C160.734 14.3703 162.33 15.1444 163.335 16.5275H163.371C164.654 15.1802 166.32 14.3703 168.714 14.3703C172.599 14.3703 174.786 16.9325 174.786 20.406V30.6563C174.786 30.8603 174.646 30.9949 174.438 30.9949H171.248Z" fill="#BDBDBD"/>
<path d="M179.608 37.0623C179.4 37.0623 179.261 36.9271 179.261 36.7236V34.0269C179.261 33.8254 179.4 33.6882 179.608 33.6882H180.233C181.551 33.6882 182.212 33.1175 182.732 31.7676L183.218 30.385L177.11 15.076C177.041 14.8732 177.18 14.738 177.389 14.738H180.824C181.031 14.738 181.171 14.8732 181.238 15.076L185.022 25.698H185.09L188.7 15.076C188.769 14.8732 188.908 14.738 189.114 14.738H192.409C192.62 14.738 192.759 14.8732 192.687 15.076L186.305 32.0035C184.848 35.8482 183.459 37.061 180.685 37.061L179.608 37.0623Z" fill="#BDBDBD"/>
<path d="M23.7085 26.8805C23.3269 25.7319 23.1533 24.6536 23.1533 22.8668C23.1533 21.0826 23.3269 20.003 23.7085 18.859C24.6454 16.0264 27.2106 14.3735 30.6101 14.3735C33.9738 14.3735 36.5404 16.0257 37.4773 18.859C37.8569 20.003 38.0318 21.0826 38.0318 22.8668C38.0318 24.6536 37.8569 25.7319 37.4773 26.8805C36.5397 29.7111 33.9738 31.3628 30.6101 31.3628C27.2106 31.3635 24.6454 29.7118 23.7085 26.8805ZM33.7314 25.8691C34.0096 25.0274 34.0785 24.2506 34.0785 22.8675C34.0785 21.4882 34.0096 20.7453 33.7314 19.8697C33.2463 18.5224 32.1704 17.7449 30.6101 17.7449C29.0505 17.7449 27.9388 18.5224 27.4545 19.8697C27.1782 20.7459 27.108 21.4882 27.108 22.8675C27.108 24.2506 27.1782 25.0274 27.4545 25.8691C27.9388 27.2191 29.0512 27.9919 30.6101 27.9919C32.1704 27.9913 33.2463 27.2185 33.7314 25.8691Z" fill="#BDBDBD"/>
<path d="M105.622 14.3703C102.881 14.3703 101.043 15.0106 99.6884 15.9549C99.5513 16.0576 99.5156 16.224 99.6209 16.3924L100.901 18.6192C101.009 18.7882 101.214 18.822 101.389 18.6868C102.188 18.0811 103.331 17.5734 105.206 17.5734C107.94 17.5734 108.868 18.3715 108.915 20.1259H108.916V20.1474C108.917 20.1883 108.917 20.2299 108.917 20.2734V25.5344C108.917 27.3888 107.599 28.2975 105.206 28.2975C103.331 28.2975 102.326 27.6247 102.326 26.2766C102.326 24.7583 103.437 24.0823 105.934 24.0823L106.693 24.0836C106.901 24.0836 107.041 23.9485 107.041 23.7476V21.5858C107.041 21.3842 106.901 21.2497 106.693 21.2497H106.527L105.31 21.249C101.182 21.249 98.6118 22.8701 98.6118 26.4086C98.6118 29.8152 101.182 31.3654 104.233 31.3654C106.591 31.3654 108.153 30.5907 108.951 29.4778H108.985V30.6582C108.985 30.861 109.126 30.9962 109.333 30.9962H112.247C112.455 30.9962 112.595 30.8616 112.595 30.6582V20.0362C112.595 16.0576 110.722 14.3703 105.622 14.3703Z" fill="#BDBDBD"/>
<path d="M64.1695 21.2471C64.0789 21.2471 64.0195 21.305 64.0195 21.392V21.4883V21.7703V23.5565V23.7964V23.9348C64.0195 24.0219 64.0789 24.0804 64.1695 24.0804H64.256H72.761C73.0042 24.0804 73.1433 23.9465 73.1433 23.7457C73.1433 21.1132 72.9684 19.9998 72.5881 18.8545C71.65 16.0895 69.1528 14.3703 65.7176 14.3703C62.387 14.3703 59.8204 16.0219 58.8821 18.8545C58.5371 19.8997 58.3269 21.1815 58.3269 22.8675C58.3269 24.5535 58.5701 25.8003 58.9193 26.8467C59.8555 29.6781 62.3526 31.3641 65.8911 31.3641C68.9779 31.3641 71.3392 30.2175 72.7603 28.5991C72.8981 28.4314 72.8981 28.2631 72.7252 28.1266L70.68 26.3736C70.505 26.239 70.3322 26.2741 70.1579 26.4411C69.3264 27.3186 68.112 27.9926 66.2383 27.9926C64.3667 27.9926 63.0469 27.1165 62.4917 25.5324C62.4079 25.3108 62.3383 25.0781 62.2945 24.8253H62.2938C62.1674 24.1389 62.0932 23.4707 62.0932 22.4892C62.1202 21.5643 62.1755 20.9735 62.3121 20.2227C62.3133 20.2123 62.3154 20.2032 62.3174 20.1935C62.3188 20.1857 62.3202 20.1798 62.3214 20.172V20.1727C62.3546 19.9959 62.3998 19.8295 62.4559 19.6638C62.9071 18.3488 64.1559 17.5734 65.7534 17.5734C67.315 17.5734 68.5619 18.3488 69.013 19.6638C69.1528 20.0706 69.221 20.4729 69.221 21.0476C69.221 21.1821 69.1522 21.2484 69.013 21.2484H64.4545L64.4552 21.2477L64.1695 21.2471Z" fill="#BDBDBD"/>
<path d="M55.1045 8.06549H51.9178C51.7076 8.06549 51.5693 8.19998 51.5693 8.40022V16.2787V22.7941C51.5693 22.8117 51.5693 22.8292 51.5693 22.8461C51.5693 22.8637 51.5693 22.8812 51.5693 22.8981V23.7632H51.5517C51.5145 24.6927 51.4098 25.3037 51.2241 25.8764C50.7735 27.2218 49.6976 27.9622 48.1056 27.9622C46.5466 27.9622 45.4734 27.2218 45.0208 25.8764C44.7791 25.1347 44.6764 24.3274 44.6764 22.8461C44.6764 21.3654 44.7791 20.5562 45.0208 19.8172C45.4647 18.4971 46.5034 17.7515 48.011 17.7222H49.3713C49.4376 17.7066 49.4807 17.6566 49.4807 17.5838L49.4983 14.5055C49.4983 14.4269 49.4469 14.3742 49.3713 14.3651L48.2852 14.3612H47.0086V14.3619C44.2158 14.3904 42.1712 15.7008 41.3147 18.265C40.8987 19.5123 40.7258 20.6589 40.7258 22.8461C40.7258 25.034 40.8987 26.1792 41.3147 27.424C42.1806 30.0173 44.2596 31.3304 47.0999 31.3304C49.3531 31.3304 50.739 30.5237 51.5341 29.4109H51.5679V30.6232C51.5679 30.826 51.707 30.9604 51.9164 30.9604H55.1031C55.3111 30.9604 55.4502 30.8266 55.4502 30.6232V8.40022C55.4516 8.19931 55.3124 8.06549 55.1045 8.06549Z" fill="#BDBDBD"/>
<path d="M138.647 21.2471C138.558 21.2471 138.497 21.305 138.497 21.392V21.4883V21.7703V23.5565V23.7964V23.9348C138.497 24.0219 138.558 24.0804 138.647 24.0804H138.735H147.24C147.483 24.0804 147.622 23.9465 147.622 23.7457C147.622 21.1132 147.449 19.9998 147.068 18.8545C146.13 16.0895 143.632 14.3703 140.198 14.3703C136.867 14.3703 134.301 16.0219 133.362 18.8545C133.016 19.8997 132.807 21.1815 132.807 22.8675C132.807 24.5535 133.05 25.8003 133.399 26.8467C134.334 29.6781 136.832 31.3641 140.37 31.3641C143.457 31.3641 145.819 30.2175 147.24 28.5991C147.378 28.4314 147.378 28.2631 147.205 28.1266L145.159 26.3736C144.986 26.239 144.812 26.2741 144.638 26.4411C143.807 27.3186 142.593 27.9926 140.718 27.9926C138.847 27.9926 137.528 27.1165 136.972 25.5324C136.888 25.3108 136.818 25.0781 136.775 24.8253C136.648 24.1389 136.574 23.4707 136.574 22.4892C136.599 21.5643 136.655 20.9735 136.791 20.2227C136.795 20.2123 136.796 20.2032 136.797 20.1935C136.798 20.1857 136.799 20.1798 136.802 20.172V20.1727C136.835 19.9959 136.88 19.8295 136.936 19.6638C137.386 18.3488 138.636 17.5734 140.234 17.5734C141.796 17.5734 143.043 18.3488 143.493 19.6638C143.632 20.0706 143.702 20.4729 143.702 21.0476C143.702 21.1821 143.632 21.2484 143.493 21.2484H138.935V21.2477L138.647 21.2471Z" fill="#BDBDBD"/>
<path d="M129.745 8.06549H126.552C126.344 8.06549 126.205 8.20065 126.205 8.40089V16.2904V22.8162V22.8675V22.9202V23.7866H126.187C126.149 24.7174 126.044 25.329 125.859 25.9023C125.407 27.2504 124.329 27.9927 122.736 27.9927C121.176 27.9927 120.1 27.2504 119.648 25.9023C119.406 25.1593 119.3 24.3515 119.3 22.8675C119.3 21.3849 119.404 20.5738 119.648 19.8341C120.091 18.512 121.132 17.7724 122.642 17.7431L124.005 17.7437C124.213 17.7437 124.352 17.6091 124.352 17.4083V14.7063C124.352 14.5049 124.213 14.3703 124.005 14.3703H123.838L121.778 14.3697C121.762 14.3697 121.746 14.3697 121.731 14.3697C121.714 14.3697 121.701 14.3697 121.686 14.3697H121.638V14.3703C118.842 14.3982 116.795 15.7112 115.937 18.2794C115.52 19.5286 115.347 20.6758 115.347 22.8663C115.347 25.0574 115.52 26.2052 115.937 27.4518C116.804 30.0479 118.887 31.3635 121.731 31.3635C123.987 31.3635 125.375 30.5562 126.172 29.4415H126.206V30.655C126.206 30.859 126.345 30.993 126.555 30.993H129.747C129.954 30.993 130.094 30.8597 130.094 30.655V8.40089C130.092 8.19998 129.952 8.06549 129.745 8.06549Z" fill="#BDBDBD"/>
<path d="M83.3667 35.5914V38.6639C83.3667 38.8661 83.5058 39 83.7145 39H95.5454C95.7569 39 95.8966 38.8654 95.8966 38.6639V35.5914C95.8966 35.3919 95.7569 35.2574 95.5454 35.2574H83.7145C83.5058 35.2574 83.3667 35.3919 83.3667 35.5914Z" fill="#BDBDBD"/>
<path d="M80.3626 0.108541C80.3572 0.103348 80.3538 0.0968414 80.349 0.0922951C80.3484 0.0916488 80.3477 0.0916485 80.3477 0.0916485C80.2869 0.0337955 80.2005 0 80.0978 0H80.0937H0.348524C0.322182 0 0.297191 0.00259604 0.272875 0.006496C0.266121 0.0077997 0.260042 0.0103961 0.252613 0.0116998C0.237077 0.0155998 0.220192 0.0188419 0.206007 0.0246918C0.203306 0.0253492 0.20128 0.0266419 0.199253 0.0279456C0.0756486 0.0766951 0 0.187844 0 0.334738V0.336042V38.6591V38.6617C0 38.7787 0.0472805 38.8703 0.126982 38.9288C0.133061 38.9347 0.138464 38.9398 0.14657 38.9437V38.9444C0.201955 38.9782 0.269499 38.9964 0.348524 38.9964H80.093H80.0971C80.2146 38.9964 80.3099 38.9528 80.37 38.8781C80.4172 38.8223 80.4449 38.7487 80.4449 38.661V38.6585V0.336042V0.334738C80.4449 0.243089 80.4146 0.165737 80.3626 0.108541ZM4.23228 35.2558C4.20728 35.2558 4.18296 35.2538 4.16136 35.2506C4.15459 35.2492 4.14717 35.246 4.14042 35.2441C4.12421 35.2408 4.108 35.2375 4.09313 35.2317C4.09044 35.2311 4.08908 35.2291 4.08638 35.2285C3.96345 35.1804 3.88847 35.0698 3.8878 34.9243V7.14661V4.07534C3.8878 3.92781 3.96345 3.81805 4.08638 3.76858C4.08976 3.76791 4.09179 3.76602 4.09382 3.76535C4.108 3.76011 4.15392 3.74908 4.16136 3.74719C4.18432 3.74396 4.20863 3.74195 4.23362 3.74195H76.2107C76.2363 3.74195 76.26 3.74396 76.283 3.74719C76.2904 3.74908 76.2971 3.75175 76.3032 3.75365C76.3194 3.75688 76.3356 3.76011 76.3505 3.76602C76.3538 3.76669 76.3552 3.76858 76.3579 3.76925C76.4815 3.81805 76.5564 3.92848 76.5564 4.07601V34.9249C76.5559 35.0712 76.4801 35.1817 76.3586 35.2297C76.3559 35.2304 76.3545 35.2324 76.3512 35.233C76.337 35.2382 76.3201 35.2421 76.3046 35.2453C76.2971 35.2473 76.2911 35.2506 76.2836 35.2519C76.2606 35.2558 76.2384 35.257 76.2134 35.257H4.23228V35.2558Z" fill="#BDBDBD"/>
</svg>
