<svg width="169" height="23" viewBox="0 0 169 23" fill="none" xmlns="http://www.w3.org/2000/svg">
<g clip-path="url(#clip0_26016_440)">
<path d="M100.006 0.000381922C96.5301 0.000381922 93.1321 3.14812 92.7413 7.69629V0.37533H87.7495V22.4499H92.8025V11.7649C92.8025 8.77182 94.924 4.54968 100.006 4.54968V0.000381922Z" fill="#BDBDBD"/>
<path d="M153.009 18.916V3.79225H155.936C159.839 3.79225 163.011 6.23157 163.011 11.2322C163.011 16.2327 159.839 18.916 155.936 18.916H153.009ZM148.008 22.453H156.547C161.791 22.453 168.255 19.038 168.255 11.2322C168.255 3.54832 161.791 0.377212 156.547 0.377212H148.008V22.453Z" fill="#BDBDBD"/>
<path d="M128.875 11.4764C128.875 7.45149 130.948 4.15842 134.363 4.15842C137.656 4.15842 139.486 7.45149 139.486 11.4764C139.486 15.5012 137.656 18.7943 134.363 18.7943C130.948 18.7943 128.875 15.5012 128.875 11.4764ZM123.752 11.7203C123.752 18.3064 127.167 22.9412 132.534 22.9412C136.436 22.9412 138.754 20.3799 139.974 16.233V22.4533H144.973V0.377482H139.974V6.23184C138.876 2.32893 136.559 0.011585 132.9 0.011585C127.411 0.011585 123.752 5.01218 123.752 11.7203Z" fill="#BDBDBD"/>
<path d="M9.87924 22.9412C3.65897 22.9412 0 17.9406 0 11.7203C0 5.25611 4.02487 0.011585 11.7087 0.011585C19.6365 0.011585 22.3198 5.37807 22.4417 8.4272H16.7093C16.5873 6.7197 15.1237 4.15842 11.5867 4.15842C7.80581 4.15842 5.3665 7.45149 5.3665 11.4764C5.3665 15.5012 7.80581 18.7943 11.5867 18.7943C15.0018 18.7943 16.4654 16.1111 17.0752 13.4278H11.5867V11.2324H23.1034V22.4533H18.0509V15.3793C17.6851 17.9406 16.0995 22.9412 9.87924 22.9412Z" fill="#BDBDBD"/>
<path d="M33.3475 22.9409C28.5908 22.9409 25.6637 19.7698 25.6637 13.4275V0.377212H30.7862V13.4275C30.7862 16.7206 32.3718 18.3062 35.055 18.3062C40.2995 18.3062 42.251 11.842 42.251 7.32926V0.377212H47.3735V22.453H42.3729V14.2813C41.3972 18.794 38.714 22.9409 33.3475 22.9409Z" fill="#BDBDBD"/>
<path d="M77.9846 0C73.6141 0 70.857 4.22183 69.9571 8.12541C69.8032 2.89413 67.2307 0 63.1145 0C59.5583 0 56.2589 3.1714 55.4021 8.18858V0.375532H50.4084V22.4518H55.4661V14.5376C55.4661 12.5755 56.284 4.52372 61.3754 4.52372C64.6736 4.52372 65.0174 7.49876 65.0174 11.5655V22.4518H70.0727V14.5376C70.0727 12.5755 70.9246 4.52372 76.0159 4.52372C79.3115 4.52372 79.6518 7.49876 79.6518 11.5655V22.4518H84.714V9.39382C84.7369 3.12935 82.5251 0 77.9846 0Z" fill="#BDBDBD"/>
<path d="M110.857 0C104.31 0 99.873 5.1339 99.873 11.4705C99.873 18.4527 104.092 22.941 110.857 22.941C117.404 22.941 121.92 17.8072 121.92 11.4705C121.92 4.4885 117.618 0 110.857 0ZM110.857 19.0334C107.045 19.0334 104.576 15.8065 104.576 11.4705C104.576 7.13464 107.054 3.90756 110.857 3.90756C114.659 3.90756 117.038 7.13464 117.038 11.4705C117.038 15.8065 114.657 19.0334 110.857 19.0334Z" fill="#BDBDBD"/>
</g>
<defs>
<clipPath id="clip0_26016_440">
<rect width="168.255" height="22.9412" rx="9.17647" fill="white"/>
</clipPath>
</defs>
</svg>
