<svg width="174" height="142" viewBox="0 0 174 142" fill="none" xmlns="http://www.w3.org/2000/svg">
<rect x="0.69583" y="58.271" width="101" height="101" rx="50.5" transform="rotate(-34.7538 0.69583 58.271)" stroke="#828282"/>
<path d="M69.0229 62.4783L80.2861 64.5142L78.2502 75.7774" stroke="#080808" stroke-width="1.5" stroke-miterlimit="10" stroke-linecap="round" stroke-linejoin="round"/>
<path d="M61.6631 77.4353L80.1 64.6434" stroke="#080808" stroke-width="1.5" stroke-miterlimit="10" stroke-linecap="round" stroke-linejoin="round"/>
<rect width="100" height="56" transform="translate(73.9746 1.97473)" fill="#F6F6F6"/>
<path d="M82.6286 21.0307H88.0826V22.9747H80.5766V10.3747H87.8846V12.3187H82.6286V15.6127H87.4166V17.5027H82.6286V21.0307ZM92.2706 21.0487H97.5086V22.9747H90.2186V10.3747H92.2706V21.0487ZM101.192 21.0307H106.646V22.9747H99.1398V10.3747H106.448V12.3187H101.192V15.6127H105.98V17.5027H101.192V21.0307ZM114.241 23.2087C110.515 23.2087 107.761 20.4547 107.761 16.6927C107.761 12.9127 110.515 10.1587 114.241 10.1587C117.211 10.1587 119.605 12.0127 120.271 14.8567H118.183C117.571 13.1827 116.095 12.1567 114.241 12.1567C111.721 12.1567 109.867 14.0647 109.867 16.6927C109.867 19.3207 111.721 21.2107 114.241 21.2107C116.167 21.2107 117.643 20.1127 118.219 18.3307H120.325C119.659 21.3007 117.265 23.2087 114.241 23.2087ZM130.183 10.3747V12.3187H126.493V22.9747H124.423V12.3187H120.733V10.3747H130.183ZM138.991 22.9747L136.273 18.3127H133.879V22.9747H131.827V10.3747H136.723C139.153 10.3747 140.953 12.0487 140.953 14.3707C140.953 16.0807 139.927 17.4487 138.397 18.0247L141.313 22.9747H138.991ZM133.879 12.3187V16.3867H136.597C137.965 16.3867 138.847 15.5407 138.847 14.3527C138.847 13.1827 137.965 12.3187 136.597 12.3187H133.879ZM143.192 22.9747V10.3747H145.244V22.9747H143.192ZM153.775 23.2087C150.049 23.2087 147.295 20.4547 147.295 16.6927C147.295 12.9127 150.049 10.1587 153.775 10.1587C156.745 10.1587 159.139 12.0127 159.805 14.8567H157.717C157.105 13.1827 155.629 12.1567 153.775 12.1567C151.255 12.1567 149.401 14.0647 149.401 16.6927C149.401 19.3207 151.255 21.2107 153.775 21.2107C155.701 21.2107 157.177 20.1127 157.753 18.3307H159.859C159.193 21.3007 156.799 23.2087 153.775 23.2087ZM88.8206 33.3747H91.0706L86.1746 45.9747H84.2306L79.2086 33.3747H81.4946L85.2026 43.0227L88.8206 33.3747ZM94.6963 44.0307H100.15V45.9747H92.6443V33.3747H99.9523V35.3187H94.6963V38.6127H99.4843V40.5027H94.6963V44.0307ZM110.116 33.3747H112.186V45.9747H110.116V40.4847H104.338V45.9747H102.286V33.3747H104.338V38.5407H110.116V33.3747ZM115.022 45.9747V33.3747H117.074V45.9747H115.022ZM125.605 46.2087C121.879 46.2087 119.125 43.4547 119.125 39.6927C119.125 35.9127 121.879 33.1587 125.605 33.1587C128.575 33.1587 130.969 35.0127 131.635 37.8567H129.547C128.935 36.1827 127.459 35.1567 125.605 35.1567C123.085 35.1567 121.231 37.0647 121.231 39.6927C121.231 42.3207 123.085 44.2107 125.605 44.2107C127.531 44.2107 129.007 43.1127 129.583 41.3307H131.689C131.023 44.3007 128.629 46.2087 125.605 46.2087ZM135.567 44.0487H140.805V45.9747H133.515V33.3747H135.567V44.0487ZM144.488 44.0307H149.942V45.9747H142.436V33.3747H149.744V35.3187H144.488V38.6127H149.276V40.5027H144.488V44.0307ZM156.002 46.1727C153.176 46.1727 151.25 44.5887 151.25 42.0147H153.356C153.356 43.4187 154.508 44.2107 155.984 44.2107C157.334 44.2107 158.468 43.4907 158.468 42.3387C158.468 41.0787 157.118 40.7727 155.606 40.4127C153.68 39.9447 151.466 39.4047 151.466 36.8127C151.466 34.5447 153.194 33.1947 155.876 33.1947C158.612 33.1947 160.232 34.6887 160.232 37.0647H158.18C158.18 35.8047 157.136 35.1207 155.822 35.1207C154.562 35.1207 153.536 35.6967 153.536 36.7227C153.536 37.8927 154.832 38.1987 156.326 38.5587C158.288 39.0447 160.592 39.6027 160.592 42.3207C160.592 44.8407 158.558 46.1727 156.002 46.1727Z" fill="#333333"/>
</svg>
