<svg width="130" height="27" viewBox="0 0 130 27" fill="none" xmlns="http://www.w3.org/2000/svg">
<g clip-path="url(#clip0_26016_415)">
<path fill-rule="evenodd" clip-rule="evenodd" d="M22.8786 0H3.08561C2.26795 -6.80669e-07 1.48373 0.324539 0.905186 0.902334C0.326643 1.48013 0.00109128 2.26393 3.6236e-05 3.08159V22.8432C-0.00192868 23.2486 0.0760363 23.6505 0.229474 24.0258C0.382912 24.4011 0.608815 24.7425 0.894267 25.0304C1.17972 25.3184 1.51912 25.5472 1.89308 25.7039C2.26704 25.8606 2.66821 25.9421 3.07366 25.9437H22.881C23.2863 25.9432 23.6876 25.8629 24.0618 25.7074C24.4361 25.5518 24.776 25.3241 25.0622 25.0371C25.3484 24.7502 25.5753 24.4096 25.7299 24.035C25.8845 23.6603 25.9637 23.2589 25.9631 22.8536V3.08159C25.9621 2.26411 25.6367 1.48045 25.0583 0.902686C24.48 0.324919 23.696 0.000263023 22.8786 0V0ZM11.1977 18.6866C11.1965 18.9601 11.0867 19.222 10.8925 19.4146C10.6983 19.6072 10.4356 19.7149 10.162 19.7138H5.83226C5.56065 19.7125 5.30061 19.6037 5.10897 19.4112C4.91732 19.2187 4.80968 18.9582 4.80955 18.6866V5.81431C4.80941 5.54261 4.91698 5.28194 5.10868 5.08941C5.30037 4.89687 5.56057 4.78817 5.83226 4.78711H10.158C10.4301 4.78816 10.6908 4.89672 10.8832 5.08913C11.0756 5.28154 11.1842 5.5422 11.1852 5.81431L11.1977 18.6866ZM21.1775 12.7762C21.1775 13.0487 21.0693 13.31 20.8767 13.5028C20.6841 13.6955 20.4228 13.8038 20.1503 13.8039H15.8126C15.5404 13.8029 15.2797 13.6943 15.0872 13.5017C14.8948 13.3092 14.7863 13.0484 14.7854 12.7762V5.81431C14.7864 5.5422 14.895 5.28154 15.0874 5.08913C15.2798 4.89672 15.5405 4.78816 15.8126 4.78711H20.1379C20.4097 4.78803 20.67 4.89668 20.8618 5.08923C21.0536 5.28178 21.1612 5.54253 21.1611 5.81431L21.1775 12.7762Z" fill="#BDBDBD"/>
<path d="M53.7939 1.90094V6.91797H47.8507V25.944H42.1195V6.91797H36.1763V1.90094H53.7939Z" fill="#BDBDBD"/>
<path d="M61.0858 25.9439H55.7876V7.22838H61.0858V10.8116C62.0926 8.28693 63.7021 6.78545 66.5677 6.96859V12.5127C62.8242 12.2215 61.0858 13.1362 61.0858 16.1352V25.9439Z" fill="#BDBDBD"/>
<path d="M95.515 26.0895C92.0422 26.0895 89.8584 24.4258 89.8584 20.4912V6.10352e-05H95.1945V19.7577C95.1945 20.8929 95.941 21.2965 96.8582 21.2965C97.1222 21.3015 97.3862 21.2889 97.6485 21.2586V25.8711C96.9508 26.0418 96.2328 26.1154 95.515 26.0895Z" fill="#BDBDBD"/>
<path d="M106.646 26.0895C103.173 26.0895 100.985 24.4258 100.985 20.4912V6.10352e-05H106.321V19.7577C106.321 20.8928 107.074 21.2965 108.006 21.2965C108.268 21.302 108.531 21.2894 108.792 21.2586V25.8711C108.09 26.0433 107.368 26.1168 106.646 26.0895Z" fill="#BDBDBD"/>
<path d="M111.348 16.5782C111.348 10.7972 114.675 6.84174 120.406 6.84174C126.136 6.84174 129.394 10.7843 129.394 16.5782C129.394 22.3721 126.1 26.3823 120.407 26.3823C114.713 26.3823 111.348 22.3213 111.348 16.5782ZM116.543 16.5782C116.543 19.3935 117.724 21.6271 120.407 21.6271C123.089 21.6271 124.204 19.3935 124.204 16.5782C124.204 13.7629 123.059 11.587 120.407 11.587C117.754 11.587 116.543 13.7584 116.543 16.5782Z" fill="#BDBDBD"/>
<path d="M73.7216 18.2703C75.2052 18.4332 76.6962 18.5206 78.1887 18.5321C82.2477 18.5321 85.6747 17.4427 85.6747 13.5126C85.6747 9.69842 82.1521 6.83282 77.914 6.83282C72.2081 6.83282 68.5522 10.9715 68.5522 16.7524C68.5522 22.7539 71.7045 26.3177 78.8292 26.3177C80.9427 26.335 83.041 25.96 85.0177 25.2119V20.7283C83.1878 21.3146 81.1289 21.8969 79.0163 21.8969C76.1796 21.8974 74.2023 20.9652 73.7216 18.2703ZM77.806 10.9172C79.3075 10.9172 80.5133 11.936 80.5133 13.3294C80.5133 15.1211 78.6222 15.6834 76.4419 15.6834C75.5143 15.679 74.5884 15.6053 73.6718 15.463C73.741 14.5891 73.9917 13.7392 74.4079 12.9676C74.742 12.3564 75.233 11.8452 75.8302 11.4866C76.4274 11.128 77.1094 10.9349 77.806 10.9272V10.9172Z" fill="#BDBDBD"/>
</g>
<defs>
<clipPath id="clip0_26016_415">
<rect width="129.394" height="26.3824" rx="9.17647" fill="white"/>
</clipPath>
</defs>
</svg>
